<?xml version="1.0" standalone="no"?>
<!DOCTYPE svg PUBLIC "-//W3C//DTD SVG 20010904//EN"
 "http://www.w3.org/TR/2001/REC-SVG-20010904/DTD/svg10.dtd">
<svg version="1.0" xmlns="http://www.w3.org/2000/svg"
 width="720.000000pt" height="720.000000pt" viewBox="0 0 720.000000 720.000000"
 preserveAspectRatio="xMidYMid meet">

<g transform="translate(0.000000,720.000000) scale(0.100000,-0.100000)"
fill="#000000" stroke="none">
<path d="M3705 6729 c-138 -19 -320 -60 -388 -89 -126 -53 -226 -139 -301
-257 -20 -34 -32 -43 -54 -43 -15 0 -80 -14 -145 -30 -358 -93 -634 -254 -808
-473 -59 -75 -127 -192 -118 -202 4 -3 71 1 150 9 166 18 477 48 729 71 96 9
228 23 293 30 128 15 192 9 272 -25 54 -23 93 -73 150 -195 43 -90 109 -300
100 -315 -3 -5 -45 -39 -93 -76 -411 -318 -775 -637 -1103 -964 -442 -441
-696 -793 -768 -1061 -28 -103 -37 -189 -21 -189 7 0 99 51 204 113 105 63
247 147 316 187 69 40 249 148 400 238 379 227 372 223 365 213 -3 -6 -40 -34
-83 -64 -42 -29 -178 -125 -302 -212 -124 -87 -261 -183 -305 -214 -44 -30
-125 -87 -180 -126 -55 -39 -140 -99 -190 -133 -49 -34 -160 -110 -245 -170
l-155 -109 -12 -54 c-7 -30 -29 -133 -48 -229 -20 -96 -43 -205 -51 -242 -9
-36 -15 -71 -12 -78 3 -10 104 70 543 435 94 78 303 250 465 384 397 327 798
659 1054 871 344 286 451 367 301 229 -44 -41 -196 -184 -339 -319 -142 -135
-300 -283 -350 -329 -50 -47 -206 -193 -346 -325 -140 -133 -289 -273 -330
-312 -41 -38 -160 -151 -265 -250 -104 -99 -273 -258 -375 -354 -102 -96 -264
-248 -360 -339 -96 -92 -245 -231 -330 -311 -85 -80 -193 -181 -240 -225 -47
-45 -130 -123 -185 -175 -142 -133 -292 -279 -307 -298 -7 -9 8 -1 33 18 580
437 1901 1426 2624 1964 198 148 377 282 397 298 21 15 165 124 320 240 156
116 432 323 615 460 373 280 417 309 506 333 110 30 185 -10 228 -123 19 -51
22 -76 21 -224 l0 -167 85 -148 c47 -81 116 -203 155 -271 39 -67 74 -124 78
-127 8 -5 144 273 191 390 86 218 155 465 185 664 71 477 -174 880 -631 1036
-68 24 -101 28 -223 32 -160 6 -341 -8 -518 -38 -206 -36 -211 -35 -104 10
191 82 377 133 555 152 298 32 595 -43 813 -203 30 -22 55 -38 58 -35 7 6 -33
191 -72 332 -98 356 -254 673 -436 893 -94 112 -277 284 -363 340 -96 63 -249
124 -394 159 -96 23 -129 26 -346 29 -132 1 -271 -2 -310 -7z m35 -304 c0 -2
-24 -22 -53 -45 -50 -37 -58 -40 -118 -39 -35 0 -84 4 -109 7 l-45 7 65 17
c172 46 260 64 260 53z"/>
<path d="M4605 3489 c-44 -34 -174 -129 -290 -212 -115 -83 -271 -196 -345
-251 -74 -54 -175 -129 -225 -165 -49 -36 -128 -93 -175 -128 -47 -34 -143
-104 -214 -155 -71 -51 -131 -98 -133 -104 -4 -12 115 -173 436 -590 102 -133
254 -329 336 -437 83 -108 154 -196 158 -197 4 0 5 15 2 33 -2 17 -10 106 -15
197 -6 91 -17 240 -26 332 -22 236 -19 243 40 101 27 -65 105 -246 174 -403
68 -157 147 -338 175 -403 l51 -118 100 -79 c118 -92 356 -280 415 -328 28
-23 41 -29 41 -19 0 8 -51 203 -114 433 -274 1004 -316 1161 -316 1170 1 5 12
-13 27 -41 63 -123 415 -778 553 -1030 15 -27 59 -108 97 -180 38 -71 104
-193 146 -270 l76 -140 203 -74 c112 -40 328 -120 481 -177 153 -57 282 -104
287 -104 4 0 -42 91 -104 203 -62 111 -143 258 -180 327 -156 286 -367 670
-491 895 -73 132 -149 272 -170 310 -21 39 -86 158 -145 265 -59 107 -151 276
-206 375 -54 99 -149 272 -211 385 -62 113 -166 303 -230 422 -65 120 -120
218 -123 218 -3 0 -42 -27 -85 -61z"/>
</g>
</svg>
